<svg id="visual" viewBox="0 0 900 600" width="900" height="600" xmlns="http://www.w3.org/2000/svg" xmlns:xlink="http://www.w3.org/1999/xlink" version="1.1"><path d="M0 508L25 505.3C50 502.7 100 497.3 150 487.3C200 477.3 250 462.7 300 460.7C350 458.7 400 469.3 450 480C500 490.7 550 501.3 600 506.7C650 512 700 512 750 514.3C800 516.7 850 521.3 875 523.7L900 526L900 601L875 601C850 601 800 601 750 601C700 601 650 601 600 601C550 601 500 601 450 601C400 601 350 601 300 601C250 601 200 601 150 601C100 601 50 601 25 601L0 601Z" fill="#0066FF" stroke-linecap="round" stroke-linejoin="miter"></path></svg>