<svg id="visual" viewBox="0 0 900 600" width="900" height="600" xmlns="http://www.w3.org/2000/svg" xmlns:xlink="http://www.w3.org/1999/xlink" version="1.1"><path d="M0 524L9.3 524.2C18.7 524.3 37.3 524.7 56.2 525C75 525.3 94 525.7 112.8 522.8C131.7 520 150.3 514 169 510.2C187.7 506.3 206.3 504.7 225 506.7C243.7 508.7 262.3 514.3 281.2 514.2C300 514 319 508 337.8 504.8C356.7 501.7 375.3 501.3 394 502.5C412.7 503.7 431.3 506.3 450 510C468.7 513.7 487.3 518.3 506.2 520C525 521.7 544 520.3 562.8 517C581.7 513.7 600.3 508.3 619 505.8C637.7 503.3 656.3 503.7 675 503.2C693.7 502.7 712.3 501.3 731.2 500.7C750 500 769 500 787.8 503.7C806.7 507.3 825.3 514.7 844 514C862.7 513.3 881.3 504.7 890.7 500.3L900 496L900 601L890.7 601C881.3 601 862.7 601 844 601C825.3 601 806.7 601 787.8 601C769 601 750 601 731.2 601C712.3 601 693.7 601 675 601C656.3 601 637.7 601 619 601C600.3 601 581.7 601 562.8 601C544 601 525 601 506.2 601C487.3 601 468.7 601 450 601C431.3 601 412.7 601 394 601C375.3 601 356.7 601 337.8 601C319 601 300 601 281.2 601C262.3 601 243.7 601 225 601C206.3 601 187.7 601 169 601C150.3 601 131.7 601 112.8 601C94 601 75 601 56.2 601C37.3 601 18.7 601 9.3 601L0 601Z" fill="#0043a7" stroke-linecap="round" stroke-linejoin="miter"/></svg>